<svg width="30" height="30" viewBox="0 0 30 30" fill="none" xmlns="http://www.w3.org/2000/svg">
<path d="M11.0237 14.6025C11.0237 16.9746 9.10078 18.8975 6.72876 18.8975C4.35674 18.8975 2.43384 16.9746 2.43384 14.6025C2.43384 12.2305 4.35674 10.3076 6.72876 10.3076C9.10078 10.3076 11.0237 12.2305 11.0237 14.6025Z" fill="#E24135"/>
<path d="M18.8977 14.6025C18.8977 16.9746 16.9748 18.8975 14.6028 18.8975C12.2308 18.8975 10.3079 16.9746 10.3079 14.6025C10.3079 12.2305 12.2308 10.3076 14.6028 10.3076C16.9748 10.3076 18.8977 12.2305 18.8977 14.6025Z" fill="#E24135"/>
<path d="M26.7717 14.6025C26.7717 16.9746 24.8488 18.8975 22.4768 18.8975C20.1048 18.8975 18.1819 16.9746 18.1819 14.6025C18.1819 12.2305 20.1048 10.3076 22.4768 10.3076C24.8488 10.3076 26.7717 12.2305 26.7717 14.6025Z" fill="#E24135"/>
<path d="M11.0237 22.4766C11.0237 24.8486 9.10078 26.7715 6.72876 26.7715C4.35674 26.7715 2.43384 24.8486 2.43384 22.4766C2.43384 20.1046 4.35674 18.1817 6.72876 18.1817C9.10078 18.1817 11.0237 20.1046 11.0237 22.4766Z" fill="#E24135"/>
<path d="M18.8977 22.4766C18.8977 24.8486 16.9748 26.7715 14.6028 26.7715C12.2308 26.7715 10.3079 24.8486 10.3079 22.4766C10.3079 20.1046 12.2308 18.1817 14.6028 18.1817C16.9748 18.1817 18.8977 20.1046 18.8977 22.4766Z" fill="#E24135"/>
<path d="M26.7717 22.4766C26.7717 24.8486 24.8488 26.7715 22.4768 26.7715C20.1048 26.7715 18.1819 24.8486 18.1819 22.4766C18.1819 20.1046 20.1048 18.1817 22.4768 18.1817C24.8488 18.1817 26.7717 20.1046 26.7717 22.4766Z" fill="#E24135"/>
<path d="M11.0237 6.72852C11.0237 9.10054 9.10078 11.0234 6.72876 11.0234C4.35674 11.0234 2.43384 9.10054 2.43384 6.72852C2.43384 4.3565 4.35674 2.43359 6.72876 2.43359C9.10078 2.43359 11.0237 4.3565 11.0237 6.72852Z" fill="#E24135"/>
<path d="M18.8977 6.72852C18.8977 9.10054 16.9748 11.0234 14.6028 11.0234C12.2308 11.0234 10.3079 9.10054 10.3079 6.72852C10.3079 4.3565 12.2308 2.43359 14.6028 2.43359C16.9748 2.43359 18.8977 4.3565 18.8977 6.72852Z" fill="#E24135"/>
<path d="M26.7717 6.72852C26.7717 9.10054 24.8488 11.0234 22.4768 11.0234C20.1048 11.0234 18.1819 9.10054 18.1819 6.72852C18.1819 4.3565 20.1048 2.43359 22.4768 2.43359C24.8488 2.43359 26.7717 4.3565 26.7717 6.72852Z" fill="#E24135"/>
</svg>
