<svg width="28" height="28" viewBox="0 0 28 28" fill="none" xmlns="http://www.w3.org/2000/svg">
<path d="M20.6727 4.30147C20.781 4.19008 20.8656 4.05906 20.9218 3.91588C20.978 3.77269 21.0046 3.62015 21.0001 3.46697C20.9957 3.31378 20.9602 3.16295 20.8958 3.02308C20.8314 2.88322 20.7393 2.75705 20.6247 2.6518C20.5101 2.54654 20.3754 2.46426 20.2281 2.40964C20.0808 2.35502 19.9239 2.32914 19.7664 2.33347C19.6088 2.33781 19.4537 2.37227 19.3098 2.4349C19.1659 2.49752 19.0362 2.58708 18.9279 2.69847L8.72791 13.1985C8.51727 13.4151 8.3999 13.7019 8.3999 14C8.3999 14.2981 8.51727 14.5849 8.72791 14.8015L18.9279 25.3026C19.0355 25.4165 19.1652 25.5084 19.3096 25.573C19.454 25.6377 19.6102 25.6738 19.769 25.6793C19.9279 25.6848 20.0863 25.6595 20.2351 25.605C20.3838 25.5505 20.5199 25.4677 20.6355 25.3616C20.7511 25.2555 20.8438 25.1281 20.9084 24.9869C20.9729 24.8456 21.0079 24.6933 21.0113 24.5388C21.0148 24.3843 20.9867 24.2306 20.9285 24.0868C20.8704 23.9429 20.7834 23.8117 20.6727 23.7008L11.2503 14L20.6727 4.30147Z" fill="black"/>
</svg>
