<svg width="15" height="15" viewBox="0 0 15 15" fill="none" xmlns="http://www.w3.org/2000/svg">
<path d="M2.26651 11.3143L5.80182 7.49508L2.26651 3.67584C1.91116 3.29195 1.91116 2.67181 2.26651 2.28792C2.62187 1.90403 3.1959 1.90403 3.55125 2.28792L7.73349 6.80604C8.08884 7.18993 8.08884 7.81007 7.73349 8.19396L3.55125 12.7121C3.1959 13.096 2.62187 13.096 2.26651 12.7121C1.92027 12.3282 1.91116 11.6982 2.26651 11.3143Z" fill="#949DB8"/>
<path d="M7.26651 11.3143L10.8018 7.49508L7.26651 3.67584C6.91116 3.29195 6.91116 2.67181 7.26651 2.28792C7.62187 1.90403 8.1959 1.90403 8.55125 2.28792L12.7335 6.80604C13.0888 7.18993 13.0888 7.81007 12.7335 8.19396L8.55125 12.7121C8.1959 13.096 7.62187 13.096 7.26651 12.7121C6.92027 12.3282 6.91116 11.6982 7.26651 11.3143Z" fill="#949DB8"/>
</svg>
