<svg width="30" height="30" viewBox="0 0 30 30" fill="none" xmlns="http://www.w3.org/2000/svg">
<path d="M26.7759 7.56705C26.7759 9.08229 24.9328 10.4307 22.0682 11.2938C24.9328 12.1569 26.7759 13.5053 26.7759 15.0205C26.7759 16.5357 24.9329 17.8841 22.0683 18.7472C24.9329 19.6103 26.7759 20.9586 26.7759 22.4738C26.7759 25.0792 21.3268 27.1913 14.605 27.1913C7.88327 27.1913 2.4342 25.0792 2.4342 22.4738C2.4342 20.9586 4.27721 19.6103 7.14174 18.7472C4.27721 17.8841 2.4342 16.5357 2.4342 15.0205C2.4342 13.5053 4.27728 12.1569 7.14188 11.2938C4.27728 10.4307 2.4342 9.08229 2.4342 7.56705C2.4342 4.96168 7.88327 2.84961 14.605 2.84961C21.3268 2.84961 26.7759 4.96168 26.7759 7.56705Z" fill="#4285F3"/>
</svg>
