<svg width="20" height="20" viewBox="0 0 20 20" fill="none" xmlns="http://www.w3.org/2000/svg">
<g clip-path="url(#clip0_1258_4872)">
<path d="M19.4863 5.04856C19.2586 4.16342 18.5878 3.46642 17.7358 3.22986C16.1918 2.79995 10.0001 2.79995 10.0001 2.79995C10.0001 2.79995 3.80847 2.79995 2.26436 3.22986C1.41248 3.46642 0.741523 4.16342 0.513842 5.04856C0.100098 6.6528 0.100098 9.99995 0.100098 9.99995C0.100098 9.99995 0.100098 13.3471 0.513842 14.9514C0.741523 15.8365 1.41248 16.5335 2.26436 16.7701C3.80847 17.2 10.0001 17.2 10.0001 17.2C10.0001 17.2 16.1918 17.2 17.7358 16.7701C18.5878 16.5335 19.2586 15.8365 19.4863 14.9514C19.9001 13.3471 19.9001 9.99995 19.9001 9.99995C19.9001 9.99995 19.9001 6.6528 19.4863 5.04856Z" fill="#ED1D24"/>
<path d="M7.9751 13.0389L13.1501 10.0001L7.9751 6.96104V13.0389Z" fill="white"/>
</g>
<defs>
<clipPath id="clip0_1258_4872">
<rect width="19.8" height="14.4" fill="white" transform="translate(0.100098 2.80005)"/>
</clipPath>
</defs>
</svg>
